<mxfile host="app.diagrams.net" modified="2023-10-20T01:52:35.088Z" agent="Mozilla/5.0 (X11; Ubuntu; Linux x86_64; rv:109.0) Gecko/20100101 Firefox/118.0" etag="67rWlL8ZZvzKx0WpiDLC" version="22.0.5" type="device">
  <diagram name="第 1 页" id="0-aOWLXYXEPadEodvuSn">
    <mxGraphModel dx="994" dy="545" grid="1" gridSize="10" guides="1" tooltips="1" connect="1" arrows="1" fold="1" page="1" pageScale="1" pageWidth="827" pageHeight="1169" math="0" shadow="0">
      <root>
        <mxCell id="0" />
        <mxCell id="1" parent="0" />
        <mxCell id="ceajO78AtQ305eKnuE6O-1" value="&lt;font style=&quot;font-size: 39px;&quot;&gt;&lt;font color=&quot;#3333ff&quot;&gt;10101101&lt;/font&gt; &lt;font color=&quot;#ff0000&quot;&gt;1000&lt;/font&gt; &lt;font color=&quot;#3333ff&quot;&gt;0110101101&lt;/font&gt;&lt;/font&gt;" style="text;html=1;align=center;verticalAlign=middle;resizable=0;points=[];autosize=1;strokeColor=none;fillColor=none;" parent="1" vertex="1">
          <mxGeometry x="140" y="140" width="520" height="60" as="geometry" />
        </mxCell>
        <mxCell id="ceajO78AtQ305eKnuE6O-3" value="&lt;font style=&quot;font-size: 39px;&quot;&gt;&lt;font color=&quot;#3333ff&quot;&gt;10101101&lt;/font&gt; &lt;font color=&quot;#ff0000&quot;&gt;0000&lt;/font&gt; &lt;font color=&quot;#3333ff&quot;&gt;0110101101&lt;/font&gt;&lt;/font&gt;" style="text;html=1;align=center;verticalAlign=middle;resizable=0;points=[];autosize=1;strokeColor=none;fillColor=none;" parent="1" vertex="1">
          <mxGeometry x="140" y="260" width="520" height="60" as="geometry" />
        </mxCell>
        <mxCell id="ceajO78AtQ305eKnuE6O-4" value="&lt;font style=&quot;font-size: 39px;&quot;&gt;00000000 000&lt;font color=&quot;#ff0000&quot;&gt;1&lt;/font&gt; 0000000000&lt;br&gt;&lt;/font&gt;" style="text;html=1;align=center;verticalAlign=middle;resizable=0;points=[];autosize=1;strokeColor=none;fillColor=none;" parent="1" vertex="1">
          <mxGeometry x="140" y="200" width="520" height="60" as="geometry" />
        </mxCell>
        <mxCell id="ceajO78AtQ305eKnuE6O-5" value="" style="endArrow=none;html=1;rounded=0;" parent="1" edge="1">
          <mxGeometry width="50" height="50" relative="1" as="geometry">
            <mxPoint x="134" y="259" as="sourcePoint" />
            <mxPoint x="694" y="259" as="targetPoint" />
          </mxGeometry>
        </mxCell>
        <mxCell id="ceajO78AtQ305eKnuE6O-6" value="&lt;font style=&quot;font-size: 50px;&quot;&gt;-&lt;/font&gt;" style="text;html=1;align=center;verticalAlign=middle;resizable=0;points=[];autosize=1;strokeColor=none;fillColor=none;" parent="1" vertex="1">
          <mxGeometry x="70" y="188" width="40" height="70" as="geometry" />
        </mxCell>
        <mxCell id="ceajO78AtQ305eKnuE6O-7" value="&lt;font style=&quot;font-size: 50px;&quot;&gt;=&lt;/font&gt;" style="text;html=1;align=center;verticalAlign=middle;resizable=0;points=[];autosize=1;strokeColor=none;fillColor=none;" parent="1" vertex="1">
          <mxGeometry x="65" y="250" width="50" height="70" as="geometry" />
        </mxCell>
        <mxCell id="ceajO78AtQ305eKnuE6O-8" value="" style="endArrow=classic;html=1;rounded=0;strokeWidth=5;strokeColor=#3333FF;" parent="1" edge="1">
          <mxGeometry width="50" height="50" relative="1" as="geometry">
            <mxPoint x="539" y="188" as="sourcePoint" />
            <mxPoint x="540" y="260" as="targetPoint" />
          </mxGeometry>
        </mxCell>
        <mxCell id="ceajO78AtQ305eKnuE6O-9" value="" style="endArrow=classic;html=1;rounded=0;strokeWidth=5;strokeColor=#3333FF;" parent="1" edge="1">
          <mxGeometry width="50" height="50" relative="1" as="geometry">
            <mxPoint x="240" y="186" as="sourcePoint" />
            <mxPoint x="241" y="258" as="targetPoint" />
          </mxGeometry>
        </mxCell>
        <mxCell id="ceajO78AtQ305eKnuE6O-10" value="&lt;font color=&quot;#ff0000&quot; style=&quot;font-size: 50px;&quot;&gt;```&lt;/font&gt;" style="text;html=1;align=center;verticalAlign=middle;resizable=0;points=[];autosize=1;strokeColor=none;fillColor=none;" parent="1" vertex="1">
          <mxGeometry x="330" y="130" width="70" height="70" as="geometry" />
        </mxCell>
        <mxCell id="ceajO78AtQ305eKnuE6O-11" value="" style="endArrow=classic;html=1;rounded=0;strokeWidth=5;strokeColor=#FF0000;" parent="1" edge="1">
          <mxGeometry width="50" height="50" relative="1" as="geometry">
            <mxPoint x="347" y="189" as="sourcePoint" />
            <mxPoint x="348" y="261" as="targetPoint" />
          </mxGeometry>
        </mxCell>
        <mxCell id="ceajO78AtQ305eKnuE6O-12" value="&lt;font style=&quot;font-size: 50px;&quot;&gt;~&lt;/font&gt;" style="text;html=1;align=center;verticalAlign=middle;resizable=0;points=[];autosize=1;strokeColor=none;fillColor=none;" parent="1" vertex="1">
          <mxGeometry x="65" y="310" width="50" height="70" as="geometry" />
        </mxCell>
        <mxCell id="ceajO78AtQ305eKnuE6O-13" value="&lt;font style=&quot;font-size: 39px;&quot;&gt;&lt;font color=&quot;#3333ff&quot;&gt;01010010&lt;/font&gt; &lt;font color=&quot;#ff0000&quot;&gt;1111&lt;/font&gt; &lt;font color=&quot;#3333ff&quot;&gt;1001010010&lt;/font&gt;&lt;/font&gt;" style="text;html=1;align=center;verticalAlign=middle;resizable=0;points=[];autosize=1;strokeColor=none;fillColor=none;" parent="1" vertex="1">
          <mxGeometry x="140" y="320" width="520" height="60" as="geometry" />
        </mxCell>
        <mxCell id="ceajO78AtQ305eKnuE6O-18" value="" style="edgeStyle=elbowEdgeStyle;elbow=horizontal;endArrow=classic;html=1;curved=0;rounded=0;endSize=8;startSize=8;" parent="1" source="ceajO78AtQ305eKnuE6O-21" target="ceajO78AtQ305eKnuE6O-22" edge="1">
          <mxGeometry width="50" height="50" relative="1" as="geometry">
            <mxPoint x="500" y="360" as="sourcePoint" />
            <mxPoint x="550" y="310" as="targetPoint" />
            <Array as="points">
              <mxPoint x="700" y="320" />
            </Array>
          </mxGeometry>
        </mxCell>
        <mxCell id="ceajO78AtQ305eKnuE6O-19" value="&lt;font style=&quot;font-size: 30px;&quot;&gt;req&lt;/font&gt;" style="text;html=1;align=center;verticalAlign=middle;resizable=0;points=[];autosize=1;strokeColor=none;fillColor=none;" parent="1" vertex="1">
          <mxGeometry x="675" y="145" width="70" height="50" as="geometry" />
        </mxCell>
        <mxCell id="ceajO78AtQ305eKnuE6O-20" value="&lt;font style=&quot;font-size: 30px;&quot;&gt;priority&lt;/font&gt;" style="text;html=1;align=center;verticalAlign=middle;resizable=0;points=[];autosize=1;strokeColor=none;fillColor=none;" parent="1" vertex="1">
          <mxGeometry x="660" y="195" width="110" height="50" as="geometry" />
        </mxCell>
        <mxCell id="ceajO78AtQ305eKnuE6O-21" value="&lt;font style=&quot;font-size: 30px;&quot;&gt;ans&lt;/font&gt;" style="text;html=1;align=center;verticalAlign=middle;resizable=0;points=[];autosize=1;strokeColor=none;fillColor=none;" parent="1" vertex="1">
          <mxGeometry x="695" y="265" width="70" height="50" as="geometry" />
        </mxCell>
        <mxCell id="ceajO78AtQ305eKnuE6O-22" value="&lt;div&gt;&lt;font style=&quot;font-size: 30px;&quot;&gt;~ans&lt;/font&gt;&lt;/div&gt;" style="text;html=1;align=center;verticalAlign=middle;resizable=0;points=[];autosize=1;strokeColor=none;fillColor=none;" parent="1" vertex="1">
          <mxGeometry x="685" y="320" width="90" height="50" as="geometry" />
        </mxCell>
        <mxCell id="ceajO78AtQ305eKnuE6O-23" value="" style="edgeStyle=elbowEdgeStyle;elbow=horizontal;endArrow=classic;html=1;curved=0;rounded=0;endSize=8;startSize=8;exitX=0.986;exitY=0.5;exitDx=0;exitDy=0;exitPerimeter=0;" parent="1" source="ceajO78AtQ305eKnuE6O-19" target="ceajO78AtQ305eKnuE6O-25" edge="1">
          <mxGeometry width="50" height="50" relative="1" as="geometry">
            <mxPoint x="500" y="410" as="sourcePoint" />
            <mxPoint x="670" y="400" as="targetPoint" />
            <Array as="points">
              <mxPoint x="800" y="320" />
            </Array>
          </mxGeometry>
        </mxCell>
        <mxCell id="ceajO78AtQ305eKnuE6O-24" value="&lt;font style=&quot;font-size: 39px;&quot;&gt;&lt;font color=&quot;#3333ff&quot;&gt;00000000&lt;/font&gt; &lt;font color=&quot;#ff0000&quot;&gt;1000&lt;/font&gt; &lt;font color=&quot;#3333ff&quot;&gt;0000000000&lt;/font&gt;&lt;/font&gt;" style="text;html=1;align=center;verticalAlign=middle;resizable=0;points=[];autosize=1;strokeColor=none;fillColor=none;" parent="1" vertex="1">
          <mxGeometry x="140" y="380" width="520" height="60" as="geometry" />
        </mxCell>
        <mxCell id="ceajO78AtQ305eKnuE6O-25" value="&lt;div&gt;&lt;font style=&quot;font-size: 30px;&quot;&gt;req &amp;amp; ~ans&lt;/font&gt;&lt;/div&gt;&lt;div&gt;&lt;font style=&quot;font-size: 30px;&quot;&gt;=gnt&lt;/font&gt;&lt;/div&gt;" style="text;html=1;align=center;verticalAlign=middle;resizable=0;points=[];autosize=1;strokeColor=none;fillColor=none;" parent="1" vertex="1">
          <mxGeometry x="650" y="380" width="170" height="90" as="geometry" />
        </mxCell>
      </root>
    </mxGraphModel>
  </diagram>
</mxfile>
